<?xml version="1.0" standalone="no"?>
<!DOCTYPE svg PUBLIC "-//W3C//DTD SVG 20010904//EN"
 "http://www.w3.org/TR/2001/REC-SVG-20010904/DTD/svg10.dtd">
<svg version="1.0" xmlns="http://www.w3.org/2000/svg"
 width="500.000000pt" height="500.000000pt" viewBox="0 0 500.000000 500.000000"
 preserveAspectRatio="xMidYMid meet">

<g transform="translate(0.000000,500.000000) scale(0.100000,-0.100000)"
fill="#000000" stroke="none">
<path d="M0 2500 l0 -2500 2500 0 2500 0 0 2500 0 2500 -2500 0 -2500 0 0
-2500z m1630 820 l0 -60 85 0 85 0 0 -30 0 -29 -82 -3 -83 -3 0 -168 c0 -165
0 -169 24 -188 25 -21 101 -26 144 -10 21 8 26 6 36 -16 14 -30 9 -36 -38 -52
-85 -28 -189 0 -226 61 -17 29 -20 57 -23 206 l-4 172 -54 0 c-53 0 -54 0 -54
30 0 30 1 30 55 30 l55 0 0 54 c0 57 4 62 58 65 20 1 22 -3 22 -59z m1710 0
l0 -60 85 0 c47 0 85 -3 85 -7 0 -5 -3 -18 -6 -30 -6 -21 -12 -23 -85 -23
l-79 0 0 -170 c0 -157 2 -172 20 -190 22 -22 99 -28 144 -10 23 8 28 6 40 -19
14 -27 14 -29 -12 -41 -15 -7 -56 -14 -92 -17 -77 -5 -122 14 -157 66 -22 32
-23 44 -23 207 l0 174 -60 0 -60 0 0 30 0 30 60 0 60 0 0 54 c0 57 4 62 58 65
20 1 22 -3 22 -59z m-1057 -61 c85 -23 136 -102 140 -214 l2 -60 -167 -3
c-125 -2 -168 -6 -168 -15 0 -38 25 -89 56 -116 30 -27 43 -31 90 -31 35 0 69
7 94 20 l39 20 15 -22 c9 -12 16 -26 16 -30 0 -16 -84 -50 -136 -55 -154 -16
-254 85 -254 257 0 115 41 193 124 235 54 27 90 31 149 14z m439 -85 c30 -48
58 -87 62 -88 5 0 34 38 64 87 l54 87 45 0 c53 0 58 16 -50 -139 l-66 -95 76
-110 c42 -61 82 -118 90 -127 7 -8 13 -19 13 -22 0 -10 -100 -9 -100 1 0 4
-29 52 -65 106 l-64 100 -68 -107 -68 -107 -42 0 c-24 0 -43 3 -43 6 0 3 36
57 80 120 44 63 83 120 86 128 3 8 -27 63 -68 123 -40 59 -74 111 -76 116 -2
4 17 7 42 7 l45 0 53 -86z m-333 -850 l31 -6 0 -349 0 -349 -35 0 c-30 0 -36
4 -44 33 -5 17 -10 27 -10 20 -2 -24 -86 -63 -135 -63 -110 0 -174 79 -184
225 -13 221 124 354 282 270 l46 -24 0 124 c0 69 4 125 9 125 5 0 23 -3 40 -6z
m496 -213 c75 -35 112 -96 122 -207 l6 -64 -172 0 -173 0 7 -32 c12 -53 21
-71 49 -97 38 -35 127 -41 183 -12 39 19 41 19 57 2 26 -29 19 -41 -40 -68
-47 -21 -67 -25 -124 -21 -130 7 -200 86 -208 234 -3 60 0 95 13 134 40 121
170 182 280 131z m410 -205 l72 -210 70 210 70 209 42 3 c38 3 42 1 37 -15 -3
-11 -44 -122 -90 -248 l-83 -230 -49 -3 -49 -3 -85 237 c-47 130 -87 243 -88
251 -3 11 6 14 39 11 l42 -3 72 -209z m-1595 -141 c73 -38 44 -155 -37 -155
-87 0 -114 114 -38 158 27 15 41 15 75 -3z"/>
<path d="M2159 3183 c-33 -20 -55 -57 -64 -105 l-7 -38 131 0 c146 0 141 -3
121 72 -22 76 -114 113 -181 71z"/>
<path d="M2151 2034 c-38 -31 -51 -77 -51 -174 0 -130 51 -195 141 -182 17 3
46 20 65 39 l34 34 0 120 c0 66 -5 129 -10 140 -28 52 -129 65 -179 23z"/>
<path d="M2727 2030 c-29 -25 -57 -86 -57 -124 0 -3 59 -6 130 -6 145 0 141
-3 118 72 -26 88 -124 118 -191 58z"/>
</g>
</svg>
